# https://github.com/mikedh/trimesh
v 0.74067998 -0.82140303 -0.83658302
v 0.00000000 -0.83678198 -1.18299699
v 0.00000000 -0.45984599 -1.09917903
v 0.69346303 -0.45010099 -0.77572101
v -0.74067998 -0.82140303 -0.83658302
v -0.69346303 -0.45010099 -0.77572101
v -1.04677701 -0.82043600 0.00000000
v -0.97861499 -0.45076999 0.00000000
v -0.74067998 -0.82140303 0.83658302
v -0.69346303 -0.45010099 0.77572101
v -0.00000000 -0.83678198 1.18299699
v 0.00000000 -0.45984599 1.09917903
v 0.74067998 -0.82140303 0.83658302
v 0.69346303 -0.45010099 0.77572101
v 1.04677701 -0.82043600 -0.00000000
v 0.97861499 -0.45076999 0.00000000
v 0.74067998 -0.82140303 -0.83658302
v 0.69346303 -0.45010099 -0.77572101
v 0.71565402 -0.82831699 -0.81364298
v 0.66843700 -0.45701501 -0.75278097
v 0.00000000 -0.46724799 -1.06594205
v -0.00000000 -0.84418398 -1.14976001
v -0.66843700 -0.45701501 -0.75278097
v -0.71565402 -0.82831699 -0.81364298
v -0.94401503 -0.45719600 0.00000000
v -1.01217699 -0.82686198 0.00000000
v -0.66843700 -0.45701501 0.75278097
v -0.71565402 -0.82831699 0.81364298
v 0.00000000 -0.46724799 1.06594205
v -0.00000000 -0.84418398 1.14976001
v 0.66843700 -0.45701501 0.75278097
v 0.71565402 -0.82831699 0.81364298
v 0.94401503 -0.45719600 0.00000000
v 1.01217699 -0.82686198 -0.00000000
v 0.66843700 -0.45701501 -0.75278097
v 0.71565402 -0.82831699 -0.81364298
v 0.71565402 -0.82831699 -0.81364298
v -0.00000000 -0.84418398 -1.14976001
v 0.00000000 -0.46724799 -1.06594205
v 0.66843700 -0.45701501 -0.75278097
v -0.71565402 -0.82831699 -0.81364298
v -0.66843700 -0.45701501 -0.75278097
v -1.01217699 -0.82686198 0.00000000
v -0.94401503 -0.45719600 0.00000000
v -0.71565402 -0.82831699 0.81364298
v -0.66843700 -0.45701501 0.75278097
v -0.00000000 -0.84418398 1.14976001
v 0.00000000 -0.46724799 1.06594205
v 0.71565402 -0.82831699 0.81364298
v 0.66843700 -0.45701501 0.75278097
v 1.01217699 -0.82686198 -0.00000000
v 0.94401503 -0.45719600 0.00000000
v 0.71565402 -0.82831699 -0.81364298
v 0.66843700 -0.45701501 -0.75278097
v 0.71565402 -0.82831699 -0.81364298
v -0.00000000 -0.84418398 -1.14976001
v 0.00000000 -0.46724799 -1.06594205
v 0.66843700 -0.45701501 -0.75278097
v -0.71565402 -0.82831699 -0.81364298
v -0.66843700 -0.45701501 -0.75278097
v -1.01217699 -0.82686198 0.00000000
v -0.94401503 -0.45719600 0.00000000
v -0.71565402 -0.82831699 0.81364298
v -0.66843700 -0.45701501 0.75278097
v -0.00000000 -0.84418398 1.14976001
v 0.00000000 -0.46724799 1.06594205
v 0.71565402 -0.82831699 0.81364298
v 0.66843700 -0.45701501 0.75278097
v 1.01217699 -0.82686198 -0.00000000
v 0.94401503 -0.45719600 0.00000000
v 0.71565402 -0.82831699 -0.81364298
v 0.66843700 -0.45701501 -0.75278097
v 0.69848001 0.89209598 -0.78801501
v 0.00000000 0.89179498 -1.11560297
v 0.00000000 0.90381402 -0.00000000
v -0.69848001 0.89209598 -0.78801501
v -0.98667699 0.89236200 -0.00000000
v -0.69848001 0.89209598 0.78801501
v 0.00000000 0.89179498 1.11560297
v 0.69848001 0.89209598 0.78801501
v 0.98667699 0.89236200 -0.00000000
v -0.00000000 -0.84418398 -1.14976001
v 0.71565402 -0.82831699 -0.81364298
v 1.14924002 -0.84782898 -1.30872595
v -0.00000000 -0.98022699 -1.85114801
v -0.71565402 -0.82831699 -0.81364298
v -0.00000000 -0.84418398 -1.14976001
v -0.00000000 -0.98022699 -1.85114801
v -1.14924002 -0.84782898 -1.30872595
v -1.01217699 -0.82686198 0.00000000
v -0.71565402 -0.82831699 -0.81364298
v -1.14924002 -0.84782898 -1.30872595
v -1.62378705 -0.59622401 -0.00000000
v -0.71565402 -0.82831699 0.81364298
v -1.01217699 -0.82686198 0.00000000
v -1.62378705 -0.59622401 -0.00000000
v -1.14924002 -0.84782898 1.30872595
v -0.00000000 -0.84418398 1.14976001
v -0.71565402 -0.82831699 0.81364298
v -1.14924002 -0.84782898 1.30872595
v -0.00000000 -0.98022699 1.85114801
v 0.71565402 -0.82831699 0.81364298
v -0.00000000 -0.84418398 1.14976001
v -0.00000000 -0.98022699 1.85114801
v 1.14924002 -0.84782898 1.30872595
v 1.01217699 -0.82686198 -0.00000000
v 0.71565402 -0.82831699 0.81364298
v 1.14924002 -0.84782898 1.30872595
v 1.62378705 -0.59622401 -0.00000000
v 0.71565402 -0.82831699 -0.81364298
v 1.01217699 -0.82686198 -0.00000000
v 1.62378705 -0.59622401 -0.00000000
v 1.14924002 -0.84782898 -1.30872595
v 0.66886401 0.11982500 0.75326103
v 0.00000000 0.11298600 1.06663895
v -0.66886300 0.11982500 0.75326103
v -0.94461000 0.11993600 0.00000000
v -0.66886300 0.11982500 -0.75326103
v 0.00000000 0.11298600 -1.06663895
v 0.66886300 0.11982500 -0.75326103
v 0.66886300 0.11982500 -0.75326103
v 0.94461000 0.11993600 0.00000000
v 0.72275299 0.84606802 0.81535602
v -0.00000000 0.84554303 1.15431702
v -0.72275299 0.84606802 0.81535602
v -1.02095699 0.84633899 0.00000000
v -0.72275299 0.84606802 -0.81535602
v -0.00000000 0.84554303 -1.15431702
v 0.72275299 0.84606802 -0.81535602
v 0.72275299 0.84606802 -0.81535602
v 1.02095699 0.84633899 -0.00000000
v 0.70710701 -0.85344797 -0.80137700
v 0.64696401 -0.46036801 -0.73321700
v 0.00000000 -0.47086999 -1.03692496
v 0.00000000 -0.86836499 -1.13331902
v -0.64696401 -0.46036801 -0.73321700
v -0.70710701 -0.85344797 -0.80137700
v -0.91494602 -0.46036801 0.00000000
v -1.00000000 -0.85344797 0.00000000
v -0.64696401 -0.46036801 0.73321700
v -0.70710701 -0.85344797 0.80137700
v 0.00000000 -0.47086999 1.03692496
v 0.00000000 -0.86836499 1.13331902
v 0.64696401 -0.46036801 0.73321700
v 0.70710701 -0.85344797 0.80137700
v 0.91494602 -0.46036801 0.00000000
v 1.00000000 -0.85344797 0.00000000
v 0.64696401 -0.46036801 -0.73321700
v 0.70710701 -0.85344797 -0.80137700
v 0.68164700 0.87562501 -0.77252299
v 0.00000000 0.87562501 0.00000000
v 0.00000000 0.87562501 -1.09251297
v -0.68164700 0.87562501 -0.77252299
v -0.96399403 0.87562501 0.00000000
v -0.68164700 0.87562501 0.77252299
v 0.00000000 0.87562501 1.09251297
v 0.68164700 0.87562501 0.77252299
v 0.96399498 0.87562501 0.00000000
v 0.00000000 -0.86836499 -1.13331902
v -0.00000000 -1.00918496 -1.84710503
v 1.15245605 -0.87660098 -1.30610001
v 0.70710701 -0.85344797 -0.80137700
v -0.70710701 -0.85344797 -0.80137700
v -1.15245605 -0.87660098 -1.30610001
v -0.00000000 -1.00918496 -1.84710503
v 0.00000000 -0.86836499 -1.13331902
v -1.00000000 -0.85344797 0.00000000
v -1.62981904 -0.62481201 -0.00000000
v -1.15245605 -0.87660098 -1.30610001
v -0.70710701 -0.85344797 -0.80137700
v -0.70710701 -0.85344797 0.80137700
v -1.15245605 -0.87660098 1.30610001
v -1.62981904 -0.62481201 -0.00000000
v -1.00000000 -0.85344797 0.00000000
v 0.00000000 -0.86836499 1.13331902
v -0.00000000 -1.00918496 1.84710503
v -1.15245605 -0.87660098 1.30610001
v -0.70710701 -0.85344797 0.80137700
v 0.70710701 -0.85344797 0.80137700
v 1.15245605 -0.87660098 1.30610001
v -0.00000000 -1.00918496 1.84710503
v 0.00000000 -0.86836499 1.13331902
v 1.00000000 -0.85344797 0.00000000
v 1.62981904 -0.62481201 -0.00000000
v 1.15245605 -0.87660098 1.30610001
v 0.70710701 -0.85344797 0.80137700
v 0.70710701 -0.85344797 -0.80137700
v 1.15245605 -0.87660098 -1.30610001
v 1.62981904 -0.62481201 -0.00000000
v 1.00000000 -0.85344797 0.00000000
v 0.00000000 0.11491700 1.03746104
v 0.64729899 0.12165100 0.73359603
v -0.64729899 0.12165100 0.73359603
v -0.91541803 0.12165100 0.00000000
v -0.64729899 0.12165100 -0.73359603
v 0.00000000 0.11491700 -1.03746104
v 0.64729899 0.12165100 -0.73359603
v 0.91541898 0.12165100 0.00000000
v 0.64729899 0.12165100 -0.73359603
v 0.00000000 0.87562501 1.09251297
v 0.68164700 0.87562501 0.77252299
v -0.68164700 0.87562501 0.77252299
v -0.96399403 0.87562501 0.00000000
v -0.68164700 0.87562501 -0.77252299
v 0.00000000 0.87562501 -1.09251297
v 0.68164700 0.87562501 -0.77252299
v 0.96399498 0.87562501 0.00000000
v 0.68164700 0.87562501 -0.77252299
v 1.15245605 -0.87660098 -1.30610001
v -0.00000000 -1.00918496 -1.84710503
v -0.00000000 -1.00918496 -1.84710503
v -1.15245605 -0.87660098 -1.30610001
v -1.15245605 -0.87660098 -1.30610001
v -1.62981904 -0.62481201 -0.00000000
v -1.62981904 -0.62481201 -0.00000000
v -1.15245605 -0.87660098 1.30610001
v -1.15245605 -0.87660098 1.30610001
v -0.00000000 -1.00918496 1.84710503
v -0.00000000 -1.00918496 1.84710503
v 1.15245605 -0.87660098 1.30610001
v 1.15245605 -0.87660098 1.30610001
v 1.62981904 -0.62481201 -0.00000000
v 1.62981904 -0.62481201 -0.00000000
v 1.15245605 -0.87660098 -1.30610001
v 0.69848001 0.89209598 0.78801501
v 0.00000000 0.89179498 1.11560297
v -0.69848001 0.89209598 0.78801501
v -0.98667699 0.89236200 -0.00000000
v -0.69848001 0.89209598 -0.78801501
v 0.00000000 0.89179498 -1.11560297
v 0.69848001 0.89209598 -0.78801501
v 0.69848001 0.89209598 -0.78801501
v 0.98667699 0.89236200 -0.00000000
vn 0.38875658 -0.43557314 -0.81187706
vn 0.00041889 -0.47055318 -0.88237154
vn -0.00025835 0.75826118 -0.65195085
vn 0.27349632 0.74449031 -0.60904347
vn -0.64468902 -0.48147346 -0.59376711
vn -0.48100314 0.75960081 -0.43777001
vn -0.86387494 -0.50370634 -0.00009600
vn -0.65631534 0.75448649 -0.00055344
vn -0.64420328 -0.48190651 0.59394297
vn -0.48096335 0.75945883 0.43805998
vn -0.00032784 -0.47055319 0.88237157
vn 0.00037815 0.75826115 0.65195083
vn 0.64441985 -0.48156915 0.59398166
vn 0.48064414 0.75968299 0.43802165
vn 0.86387484 -0.50370627 -0.00050730
vn 0.65631543 0.75448660 -0.00016182
vn 0.82833387 -0.47187571 -0.30198726
vn 0.65148442 0.72016108 -0.23861282
vn -0.41327298 -0.19806654 0.88880543
vn -0.41333640 -0.19823984 0.88873730
vn 0.00011374 -0.21715443 0.97613725
vn 0.00009065 -0.21715762 0.97613655
vn 0.72842275 -0.19995168 0.65530117
vn 0.71425248 -0.20039068 0.67058704
vn 0.98335925 -0.18167114 -0.00043008
vn 0.98335799 -0.18167810 -0.00037503
vn 0.72877521 -0.19958961 -0.65501961
vn 0.71444641 -0.20072254 -0.67028113
vn 0.00011374 -0.21715443 -0.97613725
vn 0.00009065 -0.21715762 -0.97613655
vn -0.72883418 -0.19967486 -0.65492800
vn -0.71452903 -0.20062548 -0.67022211
vn -0.98335925 -0.18167114 -0.00043008
vn -0.98335799 -0.18167810 -0.00037503
vn -0.92489083 -0.17310694 0.33854237
vn -0.92511370 -0.17241202 0.33828795
vn 0.10508600 -0.97781513 -0.18120291
vn 0.00103934 -0.97616929 -0.21700792
vn -0.00096607 0.97616359 0.21703390
vn -0.10051955 0.97739773 0.18598254
vn -0.15451637 -0.97986538 -0.12644576
vn 0.15143792 0.97990508 0.12981749
vn -0.18280321 -0.98314939 0.00050710
vn 0.18280464 0.98314913 -0.00050750
vn -0.15463747 -0.97975348 0.12716279
vn 0.15158701 0.97979585 -0.13046633
vn -0.00103934 -0.97616929 0.21700792
vn 0.00096607 0.97616359 -0.21703390
vn 0.15451637 -0.97986538 0.12644576
vn -0.15143792 0.97990508 -0.12981749
vn 0.18280321 -0.98314939 -0.00050710
vn -0.18280464 0.98314913 0.00050750
vn 0.20340593 -0.97641525 -0.07238290
vn -0.20185794 0.97660533 0.07413095
vn 0.41307215 0.19822684 -0.88886305
vn 0.00009065 0.21715762 -0.97613655
vn 0.00006171 0.11298790 -0.99359636
vn 0.42079453 0.09952529 -0.90167992
vn -0.71452903 0.20062548 -0.67022211
vn -0.73614959 0.10184457 -0.66911244
vn -0.98335799 0.18167810 -0.00037503
vn -0.99570461 0.09258660 -0.00021916
vn -0.71433510 0.20029365 0.67052802
vn -0.73598210 0.10204239 0.66926654
vn 0.00009065 0.21715762 0.97613655
vn 0.00006163 0.11298782 0.99359637
vn 0.71425248 0.20039068 0.67058704
vn 0.73594676 0.10199795 0.66931217
vn 0.98335799 0.18167810 -0.00037503
vn 0.99570461 0.09258660 -0.00021916
vn 0.92528652 0.17298960 -0.33751955
vn 0.93548891 0.08889745 -0.34199086
vn 0.00780561 0.99993793 -0.00795067
vn 0.00000000 0.99994197 -0.01077296
vn -0.00000000 1.00000000 0.00000000
vn -0.00780561 0.99993793 -0.00795067
vn -0.01160587 0.99993265 0.00000000
vn -0.00780561 0.99993793 0.00795067
vn -0.00000000 0.99994197 0.01077296
vn 0.00780561 0.99993793 0.00795067
vn 0.01160587 0.99993265 -0.00000000
vn 0.06751049 0.97946422 -0.18997939
vn -0.02888861 0.99170118 -0.12527658
vn 0.28697009 0.58898669 -0.75547524
vn 0.35842363 0.45889270 -0.81298831
vn 0.00259184 0.99912902 -0.04164714
vn 0.01734492 0.98882509 -0.14806787
vn -0.33685247 0.44956719 -0.82729666
vn -0.31772984 0.58149774 -0.74893800
vn 0.35003735 0.92823555 0.12590722
vn 0.18000845 0.98050551 -0.07877758
vn -0.70858202 0.59824434 -0.37418609
vn -0.55887398 0.77963157 -0.28254998
vn -0.03031947 0.99945783 0.01283688
vn 0.26614179 0.96296085 0.04330059
vn -0.51840515 0.78421626 0.34097061
vn -0.71818183 0.61896398 0.31795982
vn -0.06751049 0.97946422 0.18997939
vn 0.02888861 0.99170118 0.12527658
vn -0.28811438 0.58980843 0.75439786
vn -0.35667157 0.45955195 0.81338637
vn -0.00259184 0.99912902 0.04164714
vn -0.01734492 0.98882509 0.14806787
vn 0.33858301 0.44892491 0.82693892
vn 0.31663275 0.58070232 0.75001901
vn -0.35003735 0.92823555 -0.12590722
vn -0.18000845 0.98050551 0.07877758
vn 0.71000832 0.59769346 0.37235831
vn 0.55897797 0.77883753 0.28452720
vn 0.03031947 0.99945783 -0.01283688
vn -0.26614179 0.96296085 -0.04330059
vn 0.51839079 0.78511840 -0.33891015
vn 0.71678542 0.61957653 -0.31991185
vn 0.73735392 -0.05740060 0.67306343
vn -0.00007438 -0.06082673 0.99814834
vn -0.73730614 -0.05731959 0.67312266
vn -0.99856733 -0.05350970 0.00004670
vn -0.73727226 -0.05736539 -0.67315587
vn -0.00007416 -0.06082682 -0.99814833
vn 0.42407118 -0.05560353 -0.90392028
vn 0.93785187 -0.05067889 -0.34331549
vn 0.99856732 -0.05350987 0.00004628
vn 0.70877718 0.25344158 0.65833296
vn -0.00004210 0.25911808 0.96584565
vn -0.70876846 0.25334637 0.65837899
vn -0.96920450 0.24625726 0.00004573
vn -0.70873033 0.25338345 -0.65840576
vn -0.00004210 0.25911808 -0.96584565
vn 0.41123836 0.24891453 -0.87688344
vn 0.91578839 0.22143199 -0.33511116
vn 0.96920446 0.24625741 0.00004556
vn -0.41175736 -0.21594844 0.88533731
vn -0.42092034 -0.10964628 0.90044642
vn 0.00019116 -0.12350762 0.99234361
vn 0.00028307 -0.23596983 0.97176034
vn 0.73428472 -0.11474951 0.66907287
vn 0.71221597 -0.22431005 0.66515669
vn 0.99409794 -0.10848631 0.00000012
vn 0.97738138 -0.21148437 -0.00000024
vn 0.73428468 -0.11474911 -0.66907298
vn 0.71221609 -0.22431027 -0.66515649
vn 0.00019116 -0.12350762 -0.99234361
vn 0.00028307 -0.23596983 -0.97176034
vn -0.73439123 -0.11490232 -0.66892972
vn -0.71247671 -0.22400592 -0.66497991
vn -0.99409801 -0.10848566 -0.00000005
vn -0.97738138 -0.21148437 -0.00000024
vn -0.93423637 -0.10301924 0.34145197
vn -0.92041810 -0.19915960 0.33640152
vn 0.00000000 -1.00000000 0.00000000
vn 0.00000000 -1.00000000 0.00000000
vn 0.00000000 -1.00000000 0.00000000
vn 0.00000000 -1.00000000 0.00000000
vn 0.00000000 -1.00000000 0.00000000
vn 0.00000000 -1.00000000 0.00000000
vn 0.00000000 -1.00000000 0.00000000
vn 0.00000000 -1.00000000 0.00000000
vn 0.00000000 -1.00000000 0.00000000
vn 0.01551399 -0.98847354 0.15059674
vn 0.02200194 -0.98085190 0.19350832
vn 0.00999431 -0.99342860 0.11401640
vn -0.00030974 -0.99896193 0.04555178
vn -0.02593177 -0.99116481 0.13007635
vn -0.06562389 -0.99246937 0.10343136
vn 0.00563781 -0.98851335 0.15102839
vn 0.06999293 -0.97868326 0.19308048
vn -0.25304754 -0.96632764 0.04666719
vn -0.34068685 -0.93848342 0.05640340
vn -0.13457620 -0.99034476 0.03326423
vn 0.03673325 -0.99923492 0.01342553
vn -0.17444116 -0.98147993 -0.07916706
vn -0.11564821 -0.98233664 -0.14710616
vn -0.25043462 -0.96805712 0.01216202
vn -0.33860690 -0.93275383 0.12375647
vn -0.01551399 -0.98847354 -0.15059674
vn -0.02200194 -0.98085190 -0.19350832
vn -0.00999431 -0.99342860 -0.11401640
vn 0.00030974 -0.99896193 -0.04555178
vn 0.02593177 -0.99116481 -0.13007635
vn 0.06562389 -0.99246937 -0.10343136
vn -0.00563781 -0.98851335 -0.15102839
vn -0.06999293 -0.97868326 -0.19308048
vn 0.25304754 -0.96632764 -0.04666719
vn 0.34068685 -0.93848342 -0.05640340
vn 0.13457620 -0.99034476 -0.03326423
vn -0.03673325 -0.99923492 -0.01342553
vn 0.17444116 -0.98147993 0.07916706
vn 0.11564821 -0.98233664 0.14710616
vn 0.25043462 -0.96805712 -0.01216202
vn 0.33860690 -0.93275383 -0.12375647
vn -0.00007932 0.03679916 -0.99932268
vn -0.73790658 0.03490372 -0.67399971
vn 0.73795945 0.03498760 -0.67393747
vn 0.99946203 0.03279697 0.00000015
vn 0.73795955 0.03498799 0.67393735
vn -0.00007932 0.03679916 0.99932268
vn -0.42484766 0.03365176 0.90463917
vn -0.99946201 0.03279763 -0.00000001
vn -0.93878504 0.03090805 0.34311418
vn -0.00014372 0.07234621 -0.99737957
vn -0.73480137 0.06831579 -0.67483324
vn 0.73490841 0.06815085 -0.67473334
vn 0.99793106 0.06429310 -0.00000021
vn 0.73490829 0.06815062 0.67473351
vn -0.00014372 0.07234621 0.99737957
vn -0.42401815 0.06595045 0.90324922
vn -0.99793106 0.06429312 -0.00000019
vn -0.93751876 0.06040036 0.34265197
vn 0.42794734 -0.03459289 -0.90314141
vn 0.43512061 -0.12316315 -0.89190857
vn -0.43334249 -0.12461697 -0.89257207
vn -0.42988636 -0.03565065 -0.90217889
vn -0.93226165 0.07184326 -0.35457970
vn -0.91055004 0.19059157 -0.36684258
vn -0.90928315 0.19185629 0.36931737
vn -0.93290097 0.07378281 0.35249379
vn -0.42988636 -0.03565065 0.90217889
vn -0.43334249 -0.12461697 0.89257207
vn 0.43512061 -0.12316315 0.89190857
vn 0.42794734 -0.03459289 0.90314141
vn 0.93290097 0.07378281 0.35249379
vn 0.90928315 0.19185629 0.36931737
vn 0.91055004 0.19059157 -0.36684258
vn 0.93226165 0.07184326 -0.35457970
vn 0.58953375 0.61904571 0.51887606
vn 0.00009850 0.64189076 0.76679609
vn -0.58957498 0.61907933 0.51878909
vn -0.80198081 0.59734980 0.00000221
vn -0.58957282 0.61908037 -0.51879032
vn 0.00009850 0.64189076 -0.76679609
vn 0.33746691 0.60581548 -0.72048851
vn 0.76954964 0.57312433 -0.28164134
vn 0.80198081 0.59734980 0.00000221
f 2//2 4//4 1//1
f 4//4 2//2 3//3
f 5//5 3//3 2//2
f 3//3 5//5 6//6
f 7//7 6//6 5//5
f 6//6 7//7 8//8
f 9//9 8//8 7//7
f 8//8 9//9 10//10
f 12//12 10//10 9//9
f 9//9 11//11 12//12
f 14//14 12//12 11//11
f 11//11 13//13 14//14
f 16//16 14//14 13//13
f 13//13 15//15 16//16
f 18//18 16//16 15//15
f 15//15 17//17 18//18
f 21//21 22//22 19//19
f 19//19 20//20 21//21
f 23//23 24//24 22//22
f 22//22 21//21 23//23
f 25//25 26//26 24//24
f 24//24 23//23 25//25
f 27//27 28//28 26//26
f 26//26 25//25 27//27
f 27//27 30//30 28//28
f 30//30 27//27 29//29
f 29//29 32//32 30//30
f 32//32 29//29 31//31
f 31//31 34//34 32//32
f 34//34 31//31 33//33
f 33//33 36//36 34//34
f 36//36 33//33 35//35
f 2//2 1//1 37//37
f 37//37 38//38 2//2
f 40//40 3//3 39//39
f 3//3 40//40 4//4
f 5//5 2//2 38//38
f 38//38 41//41 5//5
f 39//39 6//6 42//42
f 6//6 39//39 3//3
f 7//7 5//5 41//41
f 41//41 43//43 7//7
f 42//42 8//8 44//44
f 8//8 42//42 6//6
f 9//9 7//7 43//43
f 43//43 45//45 9//9
f 44//44 10//10 46//46
f 10//10 44//44 8//8
f 11//11 9//9 45//45
f 45//45 47//47 11//11
f 46//46 12//12 48//48
f 12//12 46//46 10//10
f 13//13 11//11 47//47
f 47//47 49//49 13//13
f 48//48 14//14 50//50
f 14//14 48//48 12//12
f 15//15 13//13 49//49
f 49//49 51//51 15//15
f 50//50 16//16 52//52
f 16//16 50//50 14//14
f 17//17 15//15 51//51
f 51//51 53//53 17//17
f 52//52 18//18 54//54
f 18//18 52//52 16//16
f 56//56 58//58 55//55
f 58//58 56//56 57//57
f 59//59 57//57 56//56
f 57//57 59//59 60//60
f 61//61 60//60 59//59
f 60//60 61//61 62//62
f 63//63 62//62 61//61
f 62//62 63//63 64//64
f 66//66 64//64 63//63
f 63//63 65//65 66//66
f 68//68 66//66 65//65
f 65//65 67//67 68//68
f 70//70 68//68 67//67
f 67//67 69//69 70//70
f 72//72 70//70 69//69
f 69//69 71//71 72//72
f 73//73 74//74 75//75
f 74//74 76//76 75//75
f 76//76 77//77 75//75
f 77//77 78//78 75//75
f 78//78 79//79 75//75
f 79//79 80//80 75//75
f 80//80 81//81 75//75
f 81//81 73//73 75//75
f 83//83 85//85 82//82
f 85//85 83//83 84//84
f 87//87 89//89 86//86
f 89//89 87//87 88//88
f 91//91 93//93 90//90
f 93//93 91//91 92//92
f 95//95 97//97 94//94
f 97//97 95//95 96//96
f 99//99 101//101 98//98
f 101//101 99//99 100//100
f 103//103 105//105 102//102
f 105//105 103//103 104//104
f 107//107 109//109 106//106
f 109//109 107//107 108//108
f 111//111 113//113 110//110
f 113//113 111//111 112//112
f 114//114 115//115 66//66
f 66//66 68//68 114//114
f 115//115 116//116 64//64
f 64//64 66//66 115//115
f 64//64 117//117 62//62
f 117//117 64//64 116//116
f 62//62 118//118 60//60
f 118//118 62//62 117//117
f 60//60 119//119 57//57
f 119//119 60//60 118//118
f 57//57 120//120 58//58
f 120//120 57//57 119//119
f 121//121 122//122 70//70
f 70//70 72//72 121//121
f 122//122 114//114 68//68
f 68//68 70//70 122//122
f 123//123 124//124 115//115
f 115//115 114//114 123//123
f 124//124 125//125 116//116
f 116//116 115//115 124//124
f 116//116 126//126 117//117
f 126//126 116//116 125//125
f 117//117 127//127 118//118
f 127//127 117//117 126//126
f 118//118 128//128 119//119
f 128//128 118//118 127//127
f 119//119 129//129 120//120
f 129//129 119//119 128//128
f 130//130 131//131 122//122
f 122//122 121//121 130//130
f 131//131 123//123 114//114
f 114//114 122//122 131//131
f 134//134 135//135 132//132
f 132//132 133//133 134//134
f 136//136 137//137 135//135
f 135//135 134//134 136//136
f 138//138 139//139 137//137
f 137//137 136//136 138//138
f 140//140 141//141 139//139
f 139//139 138//138 140//140
f 140//140 143//143 141//141
f 143//143 140//140 142//142
f 142//142 145//145 143//143
f 145//145 142//142 144//144
f 144//144 147//147 145//145
f 147//147 144//144 146//146
f 146//146 149//149 147//147
f 149//149 146//146 148//148
f 150//150 151//151 152//152
f 152//152 151//151 153//153
f 153//153 151//151 154//154
f 154//154 151//151 155//155
f 155//155 151//151 156//156
f 156//156 151//151 157//157
f 157//157 151//151 158//158
f 158//158 151//151 150//150
f 161//161 162//162 159//159
f 159//159 160//160 161//161
f 165//165 166//166 163//163
f 163//163 164//164 165//165
f 169//169 170//170 167//167
f 167//167 168//168 169//169
f 173//173 174//174 171//171
f 171//171 172//172 173//173
f 177//177 178//178 175//175
f 175//175 176//176 177//177
f 181//181 182//182 179//179
f 179//179 180//180 181//181
f 185//185 186//186 183//183
f 183//183 184//184 185//185
f 189//189 190//190 187//187
f 187//187 188//188 189//189
f 191//191 144//144 142//142
f 144//144 191//191 192//192
f 193//193 142//142 140//140
f 142//142 193//193 191//191
f 193//193 140//140 138//138
f 138//138 194//194 193//193
f 194//194 138//138 136//136
f 136//136 195//195 194//194
f 195//195 136//136 134//134
f 134//134 196//196 195//195
f 196//196 134//134 133//133
f 133//133 197//197 196//196
f 198//198 148//148 146//146
f 148//148 198//198 199//199
f 192//192 146//146 144//144
f 146//146 192//192 198//198
f 200//200 192//192 191//191
f 192//192 200//200 201//201
f 202//202 191//191 193//193
f 191//191 202//202 200//200
f 202//202 193//193 194//194
f 194//194 203//203 202//202
f 203//203 194//194 195//195
f 195//195 204//204 203//203
f 204//204 195//195 196//196
f 196//196 205//205 204//204
f 205//205 196//196 197//197
f 197//197 206//206 205//205
f 207//207 199//199 198//198
f 199//199 207//207 208//208
f 201//201 198//198 192//192
f 198//198 201//201 207//207
f 210//210 84//84 209//209
f 84//84 210//210 85//85
f 212//212 88//88 211//211
f 88//88 212//212 89//89
f 214//214 92//92 213//213
f 92//92 214//214 93//93
f 216//216 96//96 215//215
f 96//96 216//216 97//97
f 101//101 100//100 217//217
f 217//217 218//218 101//101
f 105//105 104//104 219//219
f 219//219 220//220 105//105
f 109//109 108//108 221//221
f 221//221 222//222 109//109
f 113//113 112//112 223//223
f 223//223 224//224 113//113
f 225//225 226//226 124//124
f 124//124 123//123 225//225
f 226//226 227//227 125//125
f 125//125 124//124 226//226
f 125//125 228//228 126//126
f 228//228 125//125 227//227
f 126//126 229//229 127//127
f 229//229 126//126 228//228
f 127//127 230//230 128//128
f 230//230 127//127 229//229
f 128//128 231//231 129//129
f 231//231 128//128 230//230
f 232//232 233//233 131//131
f 131//131 130//130 232//232
f 233//233 225//225 123//123
f 123//123 131//131 233//233

