<?xml version="1.0" standalone="no"?>
<!DOCTYPE svg PUBLIC "-//W3C//DTD SVG 20010904//EN"
 "http://www.w3.org/TR/2001/REC-SVG-20010904/DTD/svg10.dtd">
<svg version="1.0" xmlns="http://www.w3.org/2000/svg"
 width="700.000000pt" height="700.000000pt" viewBox="0 0 700.000000 700.000000"
 preserveAspectRatio="xMidYMid meet">
<metadata>
Created by potrace 1.14, written by Peter Selinger 2001-2017
</metadata>
<g transform="translate(0.000000,700.000000) scale(0.100000,-0.100000)"
fill="#000000" stroke="none">
<path d="M4010 6247 c-19 -12 -43 -37 -53 -55 -19 -33 -20 -71 -20 -2122 0
-1148 -4 -2116 -8 -2149 -24 -171 -64 -287 -147 -426 -147 -247 -419 -425
-702 -463 -68 -9 -259 -9 -320 0 -218 32 -400 121 -552 269 -339 332 -409 857
-168 1268 165 283 452 464 770 486 140 10 160 14 191 36 82 58 78 187 -8 240
-29 18 -49 21 -123 21 -73 -1 -186 -15 -285 -36 -120 -26 -279 -97 -405 -181
-362 -242 -582 -668 -574 -1111 1 -86 12 -202 19 -214 2 -3 6 -25 10 -50 4
-24 22 -91 42 -148 143 -423 476 -734 899 -841 118 -29 174 -35 334 -36 154 0
203 4 315 29 443 96 798 427 941 876 66 206 62 81 63 2249 1 1081 3 1966 5
1969 3 2 287 -165 631 -372 345 -207 636 -377 646 -377 69 -5 87 0 124 32 64
56 68 155 8 211 -21 19 -1298 792 -1428 864 -11 6 -37 21 -58 32 -49 29 -105
28 -147 -1z"/>
</g>
</svg>
